<svg width="441.967" height="81.754" viewBox="0 0 441.967 81.754" xmlns="http://www.w3.org/2000/svg"><g id="svgGroup" stroke-linecap="round" fill-rule="evenodd" font-size="9pt" stroke="#000" stroke-width="0.25mm" fill="" style="stroke:#000;stroke-width:0.25mm;fill:"><path d="M 218.247 65.689 L 221.698 61.286 A 4.919 4.919 0 0 1 222.476 60.471 Q 223.371 59.739 224.435 59.739 Q 225.096 59.739 225.232 60.264 A 1.227 1.227 0 0 1 225.268 60.572 Q 225.268 61.167 224.078 62.833 Q 220.984 67.593 215.926 71.223 Q 210.869 74.852 204.919 76.935 Q 198.969 79.017 193.019 79.017 Q 185.165 79.017 179.215 75.685 Q 173.265 72.353 169.873 66.344 Q 166.482 60.334 166.482 52.599 Q 166.482 44.745 169.635 37.903 Q 172.789 31.06 178.263 25.765 Q 183.737 20.469 190.817 17.494 Q 197.898 14.519 205.752 14.519 A 30.482 30.482 0 0 1 212.92 15.326 A 23.62 23.62 0 0 1 220.27 18.446 A 16.109 16.109 0 0 1 224.55 22.177 Q 227.41 25.821 227.41 30.941 A 14.653 14.653 0 0 1 222.4 42.243 A 19.984 19.984 0 0 1 220.627 43.674 Q 214.677 47.839 206.347 47.839 A 19.34 19.34 0 0 1 201.946 47.384 Q 195.956 45.979 194.907 40.237 A 14.661 14.661 0 0 1 194.685 37.605 A 12.2 12.2 0 0 1 195.55 33.154 A 15.174 15.174 0 0 1 196.232 31.655 Q 197.201 29.717 198.451 28.831 A 3.898 3.898 0 0 1 200.754 28.085 A 7.318 7.318 0 0 1 201.724 28.144 Q 202.781 28.286 203.245 28.774 A 1.36 1.36 0 0 1 203.61 29.751 A 0.423 0.423 0 0 1 203.376 30.124 Q 203.008 30.346 202.063 30.346 Q 199.921 30.346 198.671 32.429 Q 197.422 34.511 197.422 36.891 Q 197.422 40.223 199.683 42.663 Q 201.944 45.102 205.276 45.102 Q 217.176 45.102 222.174 37.248 A 11.364 11.364 0 0 0 223.605 33.734 A 10.357 10.357 0 0 0 223.84 31.536 Q 223.84 27.014 221.103 23.385 Q 218.366 19.755 214.082 18.089 Q 211.405 17.06 207.748 16.921 A 30.679 30.679 0 0 0 206.585 16.899 Q 196.708 16.899 188.556 22.254 Q 180.405 27.609 175.645 36.653 A 35.158 35.158 0 0 0 172.373 45.259 A 29.954 29.954 0 0 0 171.599 52.004 A 24.904 24.904 0 0 0 172.34 58.211 A 19.856 19.856 0 0 0 174.812 63.964 Q 178.025 69.021 183.558 71.877 A 25.815 25.815 0 0 0 193.246 74.615 A 31.484 31.484 0 0 0 195.994 74.733 A 32.252 32.252 0 0 0 208.047 72.542 A 29.704 29.704 0 0 0 218.247 65.689 Z M 373.066 47.958 L 375.327 47.839 L 377.707 47.839 A 5.057 5.057 0 0 1 378.354 47.877 Q 379.039 47.966 379.35 48.265 A 0.854 0.854 0 0 1 379.611 48.91 A 1.076 1.076 0 0 1 379.023 49.888 Q 378.621 50.123 377.945 50.219 Q 374.467 50.783 372.4 50.902 A 17.607 17.607 0 0 1 371.4 50.933 A 22.65 22.65 0 0 1 364.437 49.9 A 19.307 19.307 0 0 1 358.191 46.53 A 14.723 14.723 0 0 1 352.429 35.904 A 18.705 18.705 0 0 1 352.36 34.273 A 21.414 21.414 0 0 1 354.172 25.795 A 29.745 29.745 0 0 1 357.001 20.707 A 26.342 26.342 0 0 1 375.976 9.398 A 40.136 40.136 0 0 1 381.396 9.045 Q 387.346 9.045 392.998 10.176 Q 398.651 11.306 404.006 13.924 L 409.48 16.542 A 13.316 13.316 0 0 1 410.49 15.114 Q 411.715 13.622 412.979 13.231 A 3.038 3.038 0 0 1 413.883 13.091 A 3.942 3.942 0 0 1 415.096 13.262 Q 416.376 13.676 416.726 15.094 A 5.065 5.065 0 0 1 416.858 16.304 A 2.517 2.517 0 0 1 416.826 16.724 Q 416.695 17.494 416.025 17.494 A 0.373 0.373 0 0 1 415.884 17.462 Q 415.662 17.37 415.311 17.018 A 1.754 1.754 0 0 0 414.904 16.71 A 1.38 1.38 0 0 0 414.24 16.542 A 0.85 0.85 0 0 0 413.776 16.697 Q 413.284 17.017 412.742 17.998 A 9.472 9.472 0 0 0 412.693 18.089 A 113.818 113.818 0 0 0 418.799 20.692 Q 424.923 23.078 429.312 23.763 A 21.217 21.217 0 0 0 432.566 24.039 Q 436.636 24.039 438.079 22.503 A 3.018 3.018 0 0 0 438.873 20.35 A 2.121 2.121 0 0 0 438.719 19.596 Q 438.474 18.955 437.84 18.185 A 10.575 10.575 0 0 0 437.445 17.732 Q 435.898 16.185 435.898 15.709 A 0.496 0.496 0 0 1 436.182 15.236 Q 436.418 15.114 436.85 15.114 Q 437.564 15.114 439.468 16.78 A 9.32 9.32 0 0 1 440.835 18.298 Q 441.967 19.898 441.967 21.659 A 4.394 4.394 0 0 1 440.15 25.274 A 7.771 7.771 0 0 1 438.635 26.181 Q 435.779 27.49 432.685 27.49 A 30.3 30.3 0 0 1 425.288 26.503 Q 418.762 24.857 411.027 20.469 A 20.524 20.524 0 0 0 410.64 21.146 Q 410.21 21.928 409.654 23.059 A 95.982 95.982 0 0 0 409.123 24.158 A 138.092 138.092 0 0 0 408.498 25.49 Q 407.548 27.541 406.347 30.282 A 385.754 385.754 0 0 0 406.267 30.465 Q 399.88 44.677 396.214 56.033 A 143.685 143.685 0 0 0 394.129 63.071 A 106.077 106.077 0 0 0 393.419 65.961 Q 392.506 69.941 392.465 71.93 A 8.866 8.866 0 0 0 392.463 72.115 A 2.273 2.273 0 0 0 392.47 72.302 Q 392.495 72.605 392.61 72.683 A 0.158 0.158 0 0 0 392.701 72.71 Q 392.813 72.71 393.993 71.857 A 69.405 69.405 0 0 0 394.129 71.758 A 16.3 16.3 0 0 1 394.546 71.475 Q 395.174 71.064 395.494 70.96 A 0.611 0.611 0 0 1 395.676 70.925 Q 396.492 70.925 396.508 71.496 A 0.824 0.824 0 0 1 396.509 71.52 Q 396.509 72.396 394.677 74.626 A 38.234 38.234 0 0 1 393.772 75.685 A 4.736 4.736 0 0 1 390.362 77.226 A 6.389 6.389 0 0 1 390.083 77.232 A 4.083 4.083 0 0 1 389.283 77.16 Q 388.853 77.074 388.535 76.885 A 1.68 1.68 0 0 1 387.822 76.042 Q 387.584 75.328 387.584 73.305 A 35.88 35.88 0 0 1 388.167 67.254 Q 389.28 60.82 392.514 51.855 A 187.926 187.926 0 0 1 394.962 45.459 A 225.324 225.324 0 0 1 400.894 32.154 Q 403.9 25.984 407.034 20.663 A 137.649 137.649 0 0 1 407.933 19.16 A 72.248 72.248 0 0 0 396.336 14.686 Q 389.056 12.615 382.229 12.615 Q 367.652 12.615 360.275 24.156 A 30.962 30.962 0 0 0 359.976 24.634 A 24.283 24.283 0 0 0 357.874 29.13 A 17.683 17.683 0 0 0 356.882 34.868 A 13.594 13.594 0 0 0 357.555 39.258 A 10.995 10.995 0 0 0 361.88 44.864 Q 364.141 46.411 366.937 47.244 Q 369.734 48.077 373.066 47.958 Z M 11.544 56.05 L 15.828 66.046 A 28.304 28.304 0 0 0 19.011 70.836 A 22.218 22.218 0 0 0 22.849 74.495 A 32.536 32.536 0 0 0 26.776 75.12 Q 28.826 75.325 31.106 75.328 A 51.633 51.633 0 0 0 31.179 75.328 Q 40.461 75.328 48.077 72.115 A 28.272 28.272 0 0 0 53.341 69.312 Q 56.489 67.146 58.34 64.32 A 15.584 15.584 0 0 0 60.096 60.691 Q 60.759 58.7 60.806 57.017 A 9.117 9.117 0 0 0 60.81 56.764 A 6.123 6.123 0 0 0 58.485 51.949 Q 57.091 50.755 54.86 49.862 A 22.227 22.227 0 0 0 53.632 49.435 Q 53.034 49.244 52.344 49.053 A 50.248 50.248 0 0 0 50.873 48.672 A 46.262 46.262 0 0 0 48.918 48.243 Q 47.834 48.028 46.614 47.831 A 84.688 84.688 0 0 0 45.102 47.601 Q 37.752 46.376 35.509 45.881 A 21.327 21.327 0 0 1 35.225 45.816 A 38.086 38.086 0 0 1 29.881 44.127 Q 23.694 41.605 21.848 37.477 A 9.201 9.201 0 0 1 21.064 33.678 A 9.77 9.77 0 0 1 22.164 29.275 Q 22.887 27.831 24.083 26.386 A 21.9 21.9 0 0 1 25.467 24.872 Q 34.063 16.276 49.237 16.071 A 55.169 55.169 0 0 1 49.981 16.066 A 39.165 39.165 0 0 1 56.674 16.594 Q 60.159 17.201 62.82 18.504 A 14.274 14.274 0 0 1 69.259 24.515 Q 70.33 26.419 70.33 28.68 A 6.698 6.698 0 0 1 69.64 31.745 Q 68.978 33.056 67.679 34.054 A 8.812 8.812 0 0 1 67.295 34.333 Q 64.261 36.415 60.453 36.415 A 8.644 8.644 0 0 1 59.557 36.373 Q 58.654 36.278 58.194 35.972 A 0.99 0.99 0 0 1 57.716 35.106 A 0.975 0.975 0 0 1 58.129 34.321 Q 58.53 34.003 59.319 33.809 A 7.896 7.896 0 0 1 59.977 33.678 Q 62.899 33.116 64.016 32.661 A 4.397 4.397 0 0 0 64.142 32.607 A 4.034 4.034 0 0 0 66.278 29.669 A 6.86 6.86 0 0 0 66.403 28.323 Q 66.403 23.511 60.996 21.236 A 16.136 16.136 0 0 0 60.572 21.064 Q 56.35 19.423 50.743 19.399 A 38.941 38.941 0 0 0 50.576 19.398 Q 44.388 19.398 38.676 21.183 A 30.993 30.993 0 0 0 34.478 22.781 Q 30.6 24.614 28.442 27.252 A 13.348 13.348 0 0 0 27.019 29.169 Q 25.824 31.153 25.824 33.083 Q 25.824 38.129 34.466 40.693 A 41.874 41.874 0 0 0 37.843 41.532 A 48.883 48.883 0 0 1 39.388 41.753 Q 40.773 41.971 42.484 42.306 A 2465.834 2465.834 0 0 0 44.67 42.733 Q 45.637 42.921 46.697 43.126 A 4413.096 4413.096 0 0 0 48.91 43.555 Q 60.321 45.822 64.237 50.501 A 8.411 8.411 0 0 1 66.284 56.05 A 13.08 13.08 0 0 1 65.876 59.226 A 16.901 16.901 0 0 1 65.213 61.286 A 22.939 22.939 0 0 1 56.269 71.819 A 33.436 33.436 0 0 1 50.338 74.852 Q 41.175 78.541 29.751 78.184 Q 30.703 78.422 31.774 78.779 A 15.588 15.588 0 0 0 33.054 79.143 A 19.946 19.946 0 0 0 34.154 79.374 L 34.154 79.493 L 34.273 79.374 A 1.543 1.543 0 0 1 34.641 79.625 A 1.076 1.076 0 0 1 34.987 80.445 Q 34.987 81.754 32.964 81.754 A 8.921 8.921 0 0 1 30.711 81.425 Q 28.446 80.827 25.376 79.146 A 53.514 53.514 0 0 1 22.73 77.589 A 47.539 47.539 0 0 1 18.014 76.626 Q 15.723 76.028 13.822 75.235 A 22.598 22.598 0 0 1 11.544 74.138 A 22.914 22.914 0 0 1 7.256 70.7 A 27.407 27.407 0 0 1 5.832 69.14 A 31.611 31.611 0 0 1 2.591 64.57 A 27.743 27.743 0 0 1 1.607 62.714 A 19.767 19.767 0 0 1 0.66 60.412 Q 0.001 58.441 0.001 56.764 A 12.175 12.175 0 0 1 0.222 54.332 Q 0.985 50.603 4.389 50.16 A 7.487 7.487 0 0 1 5.356 50.1 A 4.693 4.693 0 0 1 8.504 51.364 Q 10.014 52.683 11.249 55.378 A 22.871 22.871 0 0 1 11.544 56.05 Z M 312.461 78.786 A 23.267 23.267 0 0 0 318.802 79.612 A 27.014 27.014 0 0 0 332.431 75.894 A 37.762 37.762 0 0 0 339.984 70.092 A 44.218 44.218 0 0 0 342.136 67.851 A 50.414 50.414 0 0 0 347.124 61.227 A 68.495 68.495 0 0 0 349.262 57.616 A 81.268 81.268 0 0 0 352.955 49.981 A 130.596 130.596 0 0 0 354.251 46.694 Q 356.389 41.058 358.667 33.678 A 204.084 204.084 0 0 0 359.168 32.016 Q 361.422 24.422 362.02 20.085 A 20.219 20.219 0 0 0 362.237 17.375 Q 362.237 15.092 360.624 14.561 A 3.596 3.596 0 0 0 359.5 14.4 A 7.302 7.302 0 0 0 359.41 14.401 Q 354.296 14.464 344.506 21.659 Q 341.055 24.277 338.437 27.847 Q 336.529 30.462 335.754 32.782 A 9.585 9.585 0 0 0 335.224 35.82 A 5.961 5.961 0 0 0 335.313 36.881 Q 335.737 39.227 338.187 39.8 A 7.916 7.916 0 0 0 339.984 39.985 Q 344.464 39.985 345.877 39.093 A 1.188 1.188 0 0 0 346.529 38.081 A 0.235 0.235 0 0 0 346.423 37.914 Q 346.002 37.565 343.902 37.109 A 47.557 47.557 0 0 0 342.84 36.891 Q 339.151 36.415 339.151 34.154 A 4.274 4.274 0 0 1 339.169 33.762 Q 339.434 30.892 343.509 26.752 A 48.258 48.258 0 0 1 346.291 24.158 A 36.681 36.681 0 0 1 349.935 21.35 A 28.928 28.928 0 0 1 358.072 17.494 A 39.611 39.611 0 0 1 357.804 19.309 A 29.815 29.815 0 0 1 357.477 20.945 A 71.254 71.254 0 0 0 357.149 22.433 A 54.68 54.68 0 0 0 356.882 23.801 A 205.906 205.906 0 0 1 354.412 32.741 A 155.361 155.361 0 0 1 351.765 40.759 A 141.605 141.605 0 0 1 351.4 41.754 Q 350.12 45.206 348.789 48.233 A 84.589 84.589 0 0 1 346.053 53.908 Q 339.13 67.007 331.395 72.635 A 20.326 20.326 0 0 1 319.278 76.875 A 34.553 34.553 0 0 1 318.296 76.862 Q 306.952 76.539 304.208 68.644 A 17.671 17.671 0 0 1 303.332 62.833 A 25.143 25.143 0 0 1 303.652 58.747 A 18.534 18.534 0 0 1 307.378 50.1 A 14.675 14.675 0 0 1 313.184 45.653 A 15.717 15.717 0 0 1 319.278 44.507 Q 322.253 44.507 324.395 46.411 Q 326.537 48.315 327.608 49.624 Q 328.084 50.1 328.322 49.505 A 3.624 3.624 0 0 0 328.377 49.357 A 3.134 3.134 0 0 0 328.56 48.315 A 4.671 4.671 0 0 0 328.074 46.252 A 6.301 6.301 0 0 0 327.191 44.924 Q 325.823 43.317 323.919 42.306 A 9.573 9.573 0 0 0 322.907 41.84 A 7.645 7.645 0 0 0 320.111 41.294 Q 308.597 41.294 303.309 50.799 A 30.674 30.674 0 0 0 300.476 58.192 A 11.573 11.573 0 0 0 300.38 58.575 Q 300 60.228 300 62.357 A 21.598 21.598 0 0 0 300.13 64.768 A 15.24 15.24 0 0 0 305.355 74.971 A 18.302 18.302 0 0 0 312.461 78.786 Z M 107.934 9.64 L 107.696 9.64 A 0.325 0.325 0 0 1 107.466 9.51 Q 107.109 9.114 106.691 7.521 A 24.018 24.018 0 0 1 106.625 7.26 A 7.91 7.91 0 0 0 106.361 6.399 Q 105.79 4.88 104.84 4.88 A 5.196 5.196 0 0 0 101.561 6.93 Q 93.813 15.169 76.756 56.526 A 158.919 158.919 0 0 1 78.475 53.894 Q 79.413 52.491 80.266 51.29 A 76.85 76.85 0 0 1 81.429 49.695 Q 82.363 48.449 83.182 47.482 A 43.382 43.382 0 0 1 85.585 44.716 A 36.048 36.048 0 0 1 87.049 43.258 Q 89.013 41.413 91.036 40.104 Q 96.406 36.554 99.897 35.72 A 8.516 8.516 0 0 1 101.865 35.463 A 4.245 4.245 0 0 1 102.578 35.518 Q 103.888 35.742 103.888 36.891 Q 103.888 37.724 102.46 39.747 Q 99.224 44.358 95.824 51.222 A 165.983 165.983 0 0 0 92.583 58.192 Q 89.036 66.016 88.598 69.359 A 6.621 6.621 0 0 0 88.537 70.211 A 3.27 3.27 0 0 0 88.544 70.436 Q 88.567 70.772 88.667 70.877 A 0.144 0.144 0 0 0 88.775 70.925 A 1.582 1.582 0 0 0 89.274 70.817 Q 90.476 70.394 93.416 68.307 Q 97.224 65.808 97.462 65.808 Q 97.819 65.808 97.819 66.284 A 2.511 2.511 0 0 1 97.615 67.233 Q 97.296 68.014 96.479 68.915 A 11.503 11.503 0 0 1 96.093 69.319 Q 94.368 71.044 92.107 72.234 Q 89.846 73.424 88.418 73.424 Q 85.113 73.424 84.43 70.802 A 6.136 6.136 0 0 1 84.253 69.259 Q 84.253 65.808 88.656 56.645 A 257.299 257.299 0 0 0 89.221 55.507 Q 90.113 53.7 91.274 51.29 A 850.702 850.702 0 0 0 92.501 48.73 Q 93.04 47.6 93.626 46.366 A 1482.007 1482.007 0 0 0 94.844 43.793 A 58.084 58.084 0 0 0 95.288 42.757 Q 96.134 40.729 96.152 40.13 A 0.845 0.845 0 0 0 96.153 40.104 Q 96.153 39.821 95.928 39.763 A 0.526 0.526 0 0 0 95.796 39.747 Q 95.201 39.747 93.535 41.056 Q 89.727 44.15 85.443 49.029 Q 81.159 53.908 77.47 59.382 A 95.437 95.437 0 0 0 74.325 64.357 Q 72.721 67.088 71.52 69.616 Q 69.971 72.973 68.172 73.902 A 3.044 3.044 0 0 1 66.76 74.257 A 1.037 1.037 0 0 1 66.41 74.203 Q 65.952 74.04 65.928 73.38 A 2.049 2.049 0 0 1 65.927 73.305 Q 65.927 71.122 77.101 45.773 A 2115.261 2115.261 0 0 1 80.564 37.962 A 3575.765 3575.765 0 0 1 81.824 34.864 Q 82.391 33.471 83.028 31.911 A 7412.917 7412.917 0 0 1 84.372 28.621 Q 86.315 23.865 88.873 17.836 A 1317.736 1317.736 0 0 1 89.727 15.828 Q 96.986 0.001 104.364 0.001 Q 108.592 0.001 109.064 4.79 A 13.063 13.063 0 0 1 109.124 6.07 A 9.791 9.791 0 0 1 109.058 7.249 Q 108.845 9.003 107.934 9.64 Z M 146.014 52.718 L 142.563 58.549 A 133.993 133.993 0 0 1 138.877 63.726 Q 131.317 73.781 127.45 73.781 Q 125.546 73.781 125.546 71.996 Q 125.546 70.654 126.859 66.336 A 133.387 133.387 0 0 1 127.569 64.083 A 160.412 160.412 0 0 1 129.042 59.766 Q 130.893 54.563 133.757 47.363 L 136.613 40.104 Q 137.684 37.605 140.778 37.605 A 1.866 1.866 0 0 1 141.122 37.634 Q 141.73 37.749 141.73 38.319 Q 141.73 38.726 141.035 40.695 A 78.869 78.869 0 0 1 140.778 41.413 A 2.796 2.796 0 0 0 140.727 41.524 Q 140.516 42.009 139.569 44.331 A 1166.194 1166.194 0 0 0 139.231 45.162 A 162.524 162.524 0 0 1 138.42 47.114 Q 137.059 50.338 134.828 55.336 A 198.8 198.8 0 0 0 133.291 58.987 Q 130.33 66.238 130.306 68.391 A 3.126 3.126 0 0 0 130.306 68.426 A 2.88 2.88 0 0 0 130.327 68.79 Q 130.376 69.172 130.539 69.348 A 0.471 0.471 0 0 0 130.901 69.497 A 1.282 1.282 0 0 0 131.576 69.167 Q 133.437 67.735 138.755 60.096 A 231.983 231.983 0 0 0 144.203 52.039 Q 146.653 48.234 148.594 44.824 A 105.961 105.961 0 0 0 151.012 40.342 Q 152.068 38.098 153.527 37.099 A 4.502 4.502 0 0 1 156.129 36.296 A 2.336 2.336 0 0 1 156.614 36.342 Q 157.33 36.495 157.424 37.157 A 1.505 1.505 0 0 1 157.438 37.367 Q 157.438 38.988 154.161 47.593 A 362.814 362.814 0 0 1 152.916 50.814 A 139.83 139.83 0 0 0 151.044 55.852 Q 148.394 63.473 148.394 67.117 Q 148.394 68.178 148.779 68.563 A 0.767 0.767 0 0 0 149.346 68.783 A 2.527 2.527 0 0 0 150.721 68.238 Q 153.218 66.503 157.68 59.242 A 128.784 128.784 0 0 0 158.39 58.073 A 184.89 184.89 0 0 0 160.896 53.871 Q 164.31 47.958 165.649 44.388 Q 164.935 39.39 164.935 38.438 A 6.352 6.352 0 0 1 166.183 34.664 A 8.094 8.094 0 0 1 166.482 34.273 A 8.065 8.065 0 0 1 166.933 33.763 Q 167.683 32.99 168.23 32.965 A 0.795 0.795 0 0 1 168.267 32.964 A 3.789 3.789 0 0 1 169.24 33.078 Q 170.484 33.41 170.714 34.707 A 3.66 3.66 0 0 1 170.766 35.344 A 8.106 8.106 0 0 1 170.615 36.823 Q 170.329 38.351 169.504 40.377 A 33.052 33.052 0 0 1 169.219 41.056 A 72.16 72.16 0 0 0 168.693 42.299 Q 167.672 44.782 167.672 45.459 A 4.992 4.992 0 0 0 167.825 46.758 Q 168.282 48.449 170.095 48.734 A 5.096 5.096 0 0 0 170.885 48.791 A 5.322 5.322 0 0 0 173.403 48.144 A 6.847 6.847 0 0 0 174.098 47.72 A 2.144 2.144 0 0 1 174.336 47.732 Q 174.812 47.786 174.812 48.077 A 1.175 1.175 0 0 1 174.521 48.832 Q 174.115 49.328 173.146 49.743 A 12.559 12.559 0 0 1 172.186 50.112 Q 171.224 50.434 170.512 50.456 A 3.343 3.343 0 0 1 170.409 50.457 A 4.428 4.428 0 0 1 168.691 50.099 A 5.95 5.95 0 0 1 167.791 49.624 A 3.761 3.761 0 0 1 167.158 49.128 Q 166.482 48.457 166.482 47.601 Q 164.221 52.004 162.019 55.872 A 112.448 112.448 0 0 1 158.824 61.155 A 96.73 96.73 0 0 1 157.557 63.071 A 68.342 68.342 0 0 1 154.716 67.024 Q 150.249 72.753 146.937 73.709 A 4.611 4.611 0 0 1 145.657 73.9 A 2.2 2.2 0 0 1 144.748 73.726 Q 143.807 73.303 143.66 71.851 A 5.688 5.688 0 0 1 143.634 71.282 A 16.089 16.089 0 0 1 143.853 68.802 Q 144.426 65.177 146.49 59.501 Q 148.687 53.551 149.194 49.995 A 13.722 13.722 0 0 0 149.346 48.077 A 0.171 0.171 0 0 0 149.34 48.03 Q 149.319 47.958 149.227 47.958 Q 148.915 47.958 146.702 51.581 A 166.141 166.141 0 0 0 146.014 52.718 Z M 239.018 73.652 A 1.028 1.028 0 0 0 239.548 73.781 A 2.643 2.643 0 0 0 240.155 73.701 Q 241.146 73.465 242.701 72.532 Q 244.784 71.282 246.509 69.676 A 15.41 15.41 0 0 0 246.617 69.575 Q 247.765 68.485 248.098 67.705 A 1.508 1.508 0 0 0 248.235 67.117 A 1.648 1.648 0 0 0 248.221 66.895 Q 248.154 66.403 247.759 66.403 Q 247.371 66.403 246.039 67.663 A 33.316 33.316 0 0 0 245.379 68.307 A 46.963 46.963 0 0 1 244.867 68.812 Q 243.739 69.905 243.306 70.144 A 0.436 0.436 0 0 1 243.118 70.211 A 0.359 0.359 0 0 1 242.796 70.012 Q 242.642 69.749 242.642 69.14 Q 242.642 66.723 247.669 54.015 A 552.656 552.656 0 0 1 250.258 47.601 A 25.923 25.923 0 0 0 250.358 47.347 Q 250.809 46.184 250.928 45.519 A 2.4 2.4 0 0 0 250.972 45.102 A 1.648 1.648 0 0 0 250.958 44.88 Q 250.891 44.388 250.496 44.388 A 1.046 1.046 0 0 0 250.361 44.397 Q 249.537 44.505 248.056 45.876 Q 246.45 47.363 246.093 48.315 A 12.165 12.165 0 0 1 245.691 49.228 Q 244.976 50.706 243.475 53.135 A 114.618 114.618 0 0 1 243.27 53.465 Q 241.808 55.812 239.704 58.947 A 348.789 348.789 0 0 1 238.12 61.286 Q 232.62 69.536 230.293 71.212 A 1.836 1.836 0 0 1 229.314 71.639 Q 228.634 71.639 228.509 70.529 A 5.003 5.003 0 0 1 228.481 69.973 A 9.975 9.975 0 0 1 228.494 69.458 Q 228.637 66.7 230.266 62.357 Q 231.642 58.436 234.25 54.475 A 52.829 52.829 0 0 1 238.715 48.672 A 41.565 41.565 0 0 1 239.29 48.03 Q 243.169 43.793 245.498 43.793 A 1.13 1.13 0 0 1 246.141 44.002 Q 246.326 44.128 246.502 44.329 A 3.237 3.237 0 0 1 246.807 44.745 A 22.956 22.956 0 0 0 246.978 45.048 Q 247.322 45.646 247.459 45.779 A 0.108 0.108 0 0 0 247.521 45.816 Q 248.235 45.816 248.77 44.269 A 16.113 16.113 0 0 0 248.869 43.976 Q 249.154 43.096 249.253 42.423 A 4.515 4.515 0 0 0 249.306 41.77 Q 249.306 39.874 247.416 39.489 A 5.459 5.459 0 0 0 246.331 39.39 A 6.32 6.32 0 0 0 244.265 39.769 Q 242.176 40.493 239.635 42.599 A 36.106 36.106 0 0 0 237.168 44.864 A 57.679 57.679 0 0 0 235.219 46.907 Q 232.023 50.433 230.266 53.67 Q 226.829 59.888 225.756 64.475 A 16.912 16.912 0 0 0 225.268 68.307 A 11.855 11.855 0 0 0 225.361 69.851 Q 225.696 72.392 227.235 73.239 A 3.764 3.764 0 0 0 229.076 73.662 Q 231.813 73.662 236.811 66.76 A 112.677 112.677 0 0 0 238.484 64.328 A 97.585 97.585 0 0 0 242.88 57.121 A 166.112 166.112 0 0 0 241.839 59.802 Q 238.477 68.699 238.477 72.234 A 3.468 3.468 0 0 0 238.506 72.703 Q 238.602 73.408 239.018 73.652 Z M 285.006 74.138 L 284.054 74.138 A 7.069 7.069 0 0 1 281.172 73.595 Q 278.161 72.262 277.708 67.661 A 17.711 17.711 0 0 1 277.628 65.927 L 277.628 65.332 A 28.591 28.591 0 0 1 280.63 52.827 Q 283.04 47.823 287.386 42.841 A 31.004 31.004 0 0 1 289.489 40.625 Q 291.667 38.565 293.514 37.857 A 5.153 5.153 0 0 1 295.359 37.486 A 3.035 3.035 0 0 1 295.895 37.531 Q 296.188 37.583 296.419 37.699 A 1.411 1.411 0 0 1 296.787 37.962 Q 296.668 34.749 299.167 34.749 A 0.987 0.987 0 0 1 300 35.301 Q 300.833 36.632 300.833 41.175 A 46.474 46.474 0 0 1 300.564 46.414 Q 299.369 56.883 292.86 56.883 A 11.193 11.193 0 0 1 284.757 53.539 A 14.053 14.053 0 0 1 284.649 53.432 Q 281.762 59.299 281.134 64.292 A 21.692 21.692 0 0 0 280.96 66.998 Q 280.96 70.563 282.674 71.523 A 3.018 3.018 0 0 0 284.173 71.877 Q 285.601 71.877 287.683 70.271 A 37.245 37.245 0 0 0 290.742 67.624 A 43.279 43.279 0 0 0 291.789 66.582 Q 293.812 64.499 295.18 62.893 L 296.549 61.286 Q 296.944 61.286 297.011 61.778 A 1.648 1.648 0 0 1 297.025 62 A 3.938 3.938 0 0 1 296.856 63.096 Q 296.573 64.068 295.82 65.233 A 13.639 13.639 0 0 1 295.716 65.392 A 21.941 21.941 0 0 1 293.85 67.793 A 27.458 27.458 0 0 1 292.443 69.259 Q 290.48 71.163 288.457 72.532 A 15.927 15.927 0 0 1 287.279 73.261 Q 286.086 73.924 285.143 74.113 A 4.281 4.281 0 0 1 285.006 74.138 Z M 262.396 64.499 L 266.323 63.19 Q 266.442 62.833 266.501 62.476 Q 266.561 62.119 266.561 61.762 A 6.807 6.807 0 0 0 266.306 60.034 Q 265.657 57.586 263.348 53.908 Q 260.193 49.063 260.025 46.672 A 3.729 3.729 0 0 1 260.016 46.411 A 8.125 8.125 0 0 1 261.717 41.437 A 10.191 10.191 0 0 1 261.92 41.175 A 14.354 14.354 0 0 1 266.19 37.601 A 16.718 16.718 0 0 1 266.739 37.308 Q 269.655 35.82 272.511 35.82 Q 277.118 35.82 277.266 38.83 A 4.136 4.136 0 0 1 277.271 39.033 A 10.282 10.282 0 0 1 277.187 40.408 Q 276.982 41.919 276.274 42.575 A 1.955 1.955 0 0 1 274.891 43.079 Q 274.087 43.079 273.792 41.636 A 6.989 6.989 0 0 1 273.701 41.056 A 5.143 5.143 0 0 0 273.623 40.409 Q 273.488 39.708 273.158 39.398 A 0.909 0.909 0 0 0 272.511 39.152 Q 271.579 39.152 270.466 39.786 A 8.88 8.88 0 0 0 269.536 40.402 Q 267.87 41.651 266.739 43.377 Q 265.953 44.577 265.713 45.633 A 4.054 4.054 0 0 0 265.609 46.53 A 3.184 3.184 0 0 0 265.711 47.245 Q 265.989 48.409 267.022 50.62 A 62.785 62.785 0 0 0 267.751 52.123 Q 269.252 55.391 269.639 57.414 A 6.752 6.752 0 0 1 269.774 58.668 A 2.65 2.65 0 0 1 269.768 58.834 Q 269.757 59.008 269.725 59.244 A 9.863 9.863 0 0 1 269.714 59.323 A 13.327 13.327 0 0 1 269.661 59.66 Q 269.61 59.962 269.536 60.334 Q 269.417 60.81 269.357 61.286 A 12.793 12.793 0 0 0 269.331 61.509 Q 269.306 61.742 269.3 61.901 A 2.5 2.5 0 0 0 269.298 62 Q 269.655 61.643 270.666 61.048 Q 271.678 60.453 272.749 59.918 Q 273.82 59.382 274.177 59.382 A 0.715 0.715 0 0 1 274.256 59.386 Q 274.415 59.404 274.415 59.501 A 0.983 0.983 0 0 1 274.326 59.885 Q 274.116 60.375 273.41 61.041 A 8.575 8.575 0 0 1 273.403 61.048 A 16.87 16.87 0 0 1 271.602 62.517 A 19.05 19.05 0 0 1 271.142 62.833 A 16.161 16.161 0 0 1 270.282 63.371 Q 269.871 63.609 269.498 63.786 A 7.263 7.263 0 0 1 268.941 64.023 L 268.941 64.261 A 4.843 4.843 0 0 1 268.71 64.989 Q 268.416 65.731 267.831 66.682 A 19.295 19.295 0 0 1 267.632 66.998 Q 266.561 68.664 265.252 70.211 A 18.592 18.592 0 0 1 264.287 71.271 Q 263.496 72.071 262.753 72.591 Q 258.231 76.042 252.519 76.042 Q 248.638 76.042 247.394 74.394 A 3.098 3.098 0 0 1 246.807 72.472 A 3.901 3.901 0 0 1 247.533 70.25 Q 247.961 69.619 248.643 69.017 A 10.953 10.953 0 0 1 249.901 68.069 A 12.737 12.737 0 0 1 252.144 66.999 Q 253.274 66.582 254.6 66.296 A 22.78 22.78 0 0 1 255.256 66.165 A 497.954 497.954 0 0 1 257.271 65.745 Q 258.353 65.522 259.302 65.332 Q 260.836 65.026 262.018 64.631 A 15.027 15.027 0 0 0 262.396 64.499 Z M 118.763 36.415 L 120.072 37.129 L 120.31 36.653 A 3.539 3.539 0 0 1 120.442 36.061 Q 120.634 35.435 121.072 34.598 A 17.258 17.258 0 0 1 121.381 34.035 Q 121.938 33.849 122.278 33.809 A 1.47 1.47 0 0 1 122.452 33.797 Q 125.427 33.797 125.427 39.39 L 125.427 40.878 A 13.558 13.558 0 0 1 125.427 40.892 Q 125.426 41.78 125.308 42.96 Q 125.226 43.778 125.172 44.456 A 47.12 47.12 0 0 0 125.129 45.043 A 35.528 35.528 0 0 0 125.103 45.47 Q 125.071 46.064 125.07 46.501 A 12.102 12.102 0 0 0 125.07 46.53 A 1.525 1.525 0 0 0 125.311 47.404 Q 125.713 48.001 126.79 48.148 A 5.769 5.769 0 0 0 127.569 48.196 A 1.974 1.974 0 0 0 127.844 48.174 Q 128.302 48.109 129.08 47.851 A 16.61 16.61 0 0 0 129.116 47.839 Q 130.021 47.537 130.586 47.491 A 2.38 2.38 0 0 1 130.782 47.482 A 3.196 3.196 0 0 1 130.796 47.482 Q 131.823 47.487 131.852 48.158 A 0.914 0.914 0 0 1 131.853 48.196 Q 131.853 49.793 128.922 50.051 A 14.176 14.176 0 0 1 127.688 50.1 A 11.799 11.799 0 0 1 126.535 50.048 Q 125.389 49.935 124.699 49.577 A 2.317 2.317 0 0 1 124.237 49.267 A 61.125 61.125 0 0 1 118.666 62.947 A 69.086 69.086 0 0 1 117.573 64.856 A 39.153 39.153 0 0 1 114.727 68.978 Q 111.366 73.182 107.934 74.378 A 8.276 8.276 0 0 1 105.197 74.852 A 6.582 6.582 0 0 1 102.933 74.495 Q 100.041 73.439 99.854 69.256 A 13.284 13.284 0 0 1 99.842 68.664 A 30.805 30.805 0 0 1 100.629 62.036 Q 102.037 55.671 105.962 47.733 A 103.546 103.546 0 0 1 106.506 46.649 A 58.837 58.837 0 0 1 108.565 42.929 Q 112.169 36.984 115.294 35.929 A 4.131 4.131 0 0 1 116.621 35.701 Q 117.358 35.701 118.237 36.129 A 6.835 6.835 0 0 1 118.763 36.415 Z M 105.911 71.996 A 6.828 6.828 0 0 0 109.773 70.648 Q 113.691 67.963 117.884 59.927 A 80.06 80.06 0 0 0 118.763 58.192 Q 121.167 53.199 121.846 50.074 A 11.699 11.699 0 0 0 122.095 48.434 A 4.175 4.175 0 0 1 120.517 46.832 Q 119.741 45.496 119.477 43.317 Q 118.882 39.866 118.049 39.866 Q 115.228 39.866 111.399 46.743 A 59.459 59.459 0 0 0 110.314 48.791 A 94.534 94.534 0 0 0 107.224 55.298 Q 103.769 63.423 103.769 68.783 A 7.13 7.13 0 0 0 103.85 69.916 Q 104.172 71.901 105.755 71.992 A 2.704 2.704 0 0 0 105.911 71.996 Z M 14.474 70.354 A 27.777 27.777 0 0 0 16.661 72.71 Q 13.21 71.163 10.235 68.248 Q 7.26 65.332 5.475 61.643 A 19.695 19.695 0 0 1 4.779 60.029 A 16.201 16.201 0 0 1 3.69 54.265 Q 3.69 54.173 3.762 54.152 A 0.171 0.171 0 0 1 3.809 54.146 Q 4.679 54.146 5.942 56.425 A 23.511 23.511 0 0 1 6.546 57.597 A 131.945 131.945 0 0 0 6.893 58.271 Q 9.33 62.967 11.663 66.522 A 50.093 50.093 0 0 0 12.365 67.565 Q 13.42 69.087 14.474 70.354 Z M 296.906 44.626 L 296.906 42.722 A 45.683 45.683 0 0 0 296.902 42.116 Q 296.892 41.368 296.855 40.967 A 4.728 4.728 0 0 0 296.846 40.878 A 12.139 12.139 0 0 0 296.838 40.803 Q 296.79 40.397 296.787 40.66 A 3.391 3.391 0 0 0 296.787 40.699 A 18.154 18.154 0 0 0 288.097 47.497 A 25.758 25.758 0 0 0 285.839 51.409 A 33.429 33.429 0 0 0 287.512 52.569 Q 290.153 54.272 291.708 54.377 A 2.961 2.961 0 0 0 291.908 54.384 A 2.941 2.941 0 0 0 294.005 53.476 Q 294.985 52.525 295.716 50.576 Q 296.906 47.72 296.906 44.626 Z M 252.4 73.9 A 11.88 11.88 0 0 0 255.31 73.523 A 15.588 15.588 0 0 0 257.398 72.829 Q 260.016 71.758 262.217 69.914 Q 264.171 68.277 265.141 66.499 A 8.533 8.533 0 0 0 265.371 66.046 Q 262.991 66.879 260.968 67.653 Q 258.945 68.426 257.279 69.021 A 34.05 34.05 0 0 0 255.216 69.861 Q 252.219 71.208 251.464 72.467 A 1.622 1.622 0 0 0 251.21 73.305 Q 251.21 73.834 252.148 73.893 A 4.006 4.006 0 0 0 252.4 73.9 Z" vector-effect="non-scaling-stroke"/></g></svg>